<svg xmlns="http://www.w3.org/2000/svg" width="172" height="172" viewBox="0 0 172 172"><g id="fae83e85-9af7-4797-b310-b2f73fcf91b0" data-name="Layer 2"><path id="b7608288-919f-4c43-8085-f3729abb4659" data-name="Border" d="M129.94,182H62.06C39.43,182,22,182,16,176s-6-23.43-6-46.06V62.07C10,39.43,10,22,16,16s23.43-6,46.06-6h67.88C152.57,10,170,10,176,16s6,23.43,6,46.07V130c0,22.61,0,40.06-6,46S152.57,182,129.94,182Z" transform="translate(-10 -10)" style="fill:#fff"/><polygon points="134 6 134 6 24.01 6 24.01 130 38 130 38 39.76 37.97 39.76 37.97 22.02 38 22.02 38 20.02 162 20.02 134 6"/><polygon points="152 38.02 152 162 166 134 166 24.02 41.98 24.02 41.98 38.02 132.25 38.02 133.98 38.02 148 38.02 150 38.02 152 38.02"/><polygon points="133.98 42.03 133.98 132.25 133.98 134 133.98 148 134 148 134 152 10 152 37.97 166 148 166 148 42.03 133.98 42.03"/><polygon points="39.75 134 39.75 134 22.01 134 22.01 134 20.01 134 20.01 10 6 38 6 148 129.97 148 129.97 134 39.75 134"/></g><g id="ab0402ef-275c-435b-a836-abc75fe0aa64" data-name="Layer 3"><path d="M76.34,100.85a1.89,1.89,0,0,1-1.37-.5A1.82,1.82,0,0,1,74.46,99a1.88,1.88,0,1,1,3.76,0,1.82,1.82,0,0,1-.51,1.36A1.89,1.89,0,0,1,76.34,100.85Z" transform="translate(-10 -10)"/><path d="M90.12,100.65a3.59,3.59,0,0,1-2.63-1,3.46,3.46,0,0,1-1-2.58V88.31H82.88V86.05H89V97a1.41,1.41,0,0,0,.35,1,1.23,1.23,0,0,0,1,.37h3.22v2.26Z" transform="translate(-10 -10)"/><path d="M100.34,100.85A4.53,4.53,0,0,1,97,99.68a4.24,4.24,0,0,1-1.2-3.19V89.65h2.5v6.82a2.31,2.31,0,0,0,.52,1.63,2.19,2.19,0,0,0,3,0,2.32,2.32,0,0,0,.53-1.63V89.65h2.5v6.84a4.22,4.22,0,0,1-1.22,3.19A4.54,4.54,0,0,1,100.34,100.85Z" transform="translate(-10 -10)"/><path d="M111.12,100.85a3.85,3.85,0,0,1-2.68-.89,3.12,3.12,0,0,1-1-2.43A3,3,0,0,1,108.58,95a4.93,4.93,0,0,1,3.12-.89h2.64v-.92a1.53,1.53,0,0,0-.52-1.24,2.21,2.21,0,0,0-1.46-.44,2.54,2.54,0,0,0-1.41.36,1.25,1.25,0,0,0-.61,1H108a3.15,3.15,0,0,1,1.31-2.47,5.12,5.12,0,0,1,3.17-.93,4.81,4.81,0,0,1,3.22,1,3.4,3.4,0,0,1,1.18,2.74v7.46h-2.42V98.79h0a2.4,2.4,0,0,1-1.08,1.51A3.94,3.94,0,0,1,111.12,100.85Zm.82-1.86a2.72,2.72,0,0,0,1.73-.53,1.69,1.69,0,0,0,.67-1.41V95.73h-2.58a1.89,1.89,0,0,0-1.32.43,1.67,1.67,0,0,0,0,2.39A2.22,2.22,0,0,0,111.94,99Z" transform="translate(-10 -10)"/></g></svg>